<svg width="14" height="14" fill="none" xmlns="http://www.w3.org/2000/svg"><path d="M10.131 0h3.355l.074.01.073.02.044.018c.06.023.113.06.162.105l.03.03.031.04.04.063.03.063.013.045.01.045.007.066v3.173a.51.51 0 01-.149.358.572.572 0 01-.753.049.519.519 0 01-.198-.336l-.005-.071V1.79L8.15 6.3a.574.574 0 01-.72.051L7.37 6.3 5.136 4.263.944 8.245a.57.57 0 01-.752.027.506.506 0 01-.083-.71l.054-.06L4.746 3.15a.574.574 0 01.72-.05l.06.05L7.76 5.186l4.353-4.136H10.13a.57.57 0 01-.362-.13.518.518 0 01-.184-.324L9.578.525A.51.51 0 019.715.18a.562.562 0 01.34-.175L10.133 0zM.553 10.5c.147 0 .287.055.391.154a.512.512 0 01.162.371v2.45c0 .14-.058.273-.162.371a.568.568 0 01-.39.154.568.568 0 01-.391-.154.512.512 0 01-.162-.371v-2.45c0-.14.058-.273.162-.371a.568.568 0 01.39-.154zM4.79 8.225a.512.512 0 00-.162-.371.568.568 0 00-.39-.154.568.568 0 00-.391.154.512.512 0 00-.162.371v5.25c0 .14.058.273.162.371a.568.568 0 00.39.154.568.568 0 00.391-.154.512.512 0 00.162-.371v-5.25zm3.131.875c.147 0 .288.055.391.154a.512.512 0 01.162.371v3.85c0 .14-.058.273-.162.371a.568.568 0 01-.39.154.568.568 0 01-.391-.154.512.512 0 01-.162-.371v-3.85c0-.14.058-.273.162-.371a.568.568 0 01.39-.154zm4.237-2.975a.512.512 0 00-.162-.371.567.567 0 00-.39-.154.568.568 0 00-.391.154.512.512 0 00-.162.371v7.35c0 .14.058.273.162.371a.568.568 0 00.39.154.567.567 0 00.391-.154.512.512 0 00.162-.371v-7.35z" fill="#fff"/></svg>