<svg width="15" height="16" fill="none" xmlns="http://www.w3.org/2000/svg"><path d="M13.54 4h-2.705v-.32C10.835 1.648 9.197 0 7.176 0c-2.02 0-3.659 1.648-3.659 3.68V4H.813a.638.638 0 00-.637.64v10.72c0 .354.285.64.637.64H13.54a.638.638 0 00.636-.64V4.64A.638.638 0 0013.54 4zm-8.591-.32c0-1.238.996-2.24 2.227-2.24a2.233 2.233 0 012.228 2.24V4H4.949v-.32zm7.796 10.88H1.607V5.44h1.91V7.2c0 .088.07.16.158.16H4.79a.16.16 0 00.159-.16V5.44h4.455V7.2c0 .088.071.16.159.16h1.113a.16.16 0 00.16-.16V5.44h1.909v9.12z" fill="#660091"/></svg>