<svg width="12" height="14" fill="none" xmlns="http://www.w3.org/2000/svg"><path d="M6.156 0c-3.029 0-5.5 2.358-5.5 5.25 0 1.119.516 2.279 1.222 3.318.526.772 1.154 1.483 1.834 2.023v1.659c0 .638.553 1.167 1.222 1.167l.611.583h1.222l.611-.583c.669 0 1.223-.529 1.223-1.167v-1.659c.68-.54 1.307-1.25 1.833-2.023.707-1.04 1.222-2.2 1.222-3.318 0-2.892-2.47-5.25-5.5-5.25zm0 1.167c2.37 0 4.278 1.82 4.278 4.083 0 .764-.394 1.77-1.012 2.68-.552.81-1.277 1.533-1.948 1.987H4.839C4.168 9.463 3.442 8.74 2.89 7.93c-.617-.91-1.012-1.916-1.012-2.68 0-2.263 1.908-4.083 4.278-4.083zm-1.07 9.916h2.14a.604.604 0 00.152.073v1.094H4.934v-1.094a.618.618 0 00.153-.073z" fill="#660091"/></svg>