<svg width="15" height="14" fill="none" xmlns="http://www.w3.org/2000/svg"><path d="M13.666 2.023v0a.398.398 0 00-.525-.377l-.032-.094.032.094L2.19 5.345a.398.398 0 00-.27.377V7.28a.398.398 0 00.27.377h0l10.95 3.714a.398.398 0 00.526-.376s0 0 0 0m0-8.972l.1 8.972m-.1-8.972v8.972m0-8.972v8.972m0 0h.1m0 0a.497.497 0 01-.657.47L2.158 7.753m11.608 3.243L2.158 7.752m0 0a.498.498 0 01-.245-.182m.245.182l-.245-.182m0 0a.498.498 0 01-.094-.29l.094.29zm-.106-3.358h0A1.593 1.593 0 00.724 5.721V7.28h0a1.593 1.593 0 001.081 1.508l1.905.648v1.046s0 0 0 0a3.086 3.086 0 006.01.992l3.036 1.03a1.593 1.593 0 002.105-1.509v0-8.972a1.593 1.593 0 00-2.103-1.51l-10.95 3.7zm3.099 6.27V9.84l3.682 1.25a1.891 1.891 0 01-3.682-.608v0z" fill="#660091" stroke="#660091" stroke-width=".2"/></svg>