<svg width="14" height="14" fill="none" xmlns="http://www.w3.org/2000/svg"><path d="M10.435.04a.54.54 0 01.333.498v2.693h2.692a.538.538 0 01.382.92l-2.154 2.154a.539.539 0 01-.382.157H8.299l-.796.798a1.078 1.078 0 11-2.119.279l.001-.05A1.077 1.077 0 016.74 6.5l.798-.799V2.692a.538.538 0 01.157-.38L9.848.156a.539.539 0 01.587-.116zm.649 5.345l1.077-1.077H10.23a.538.538 0 01-.539-.539V1.84L8.614 2.914v2.47h2.47zm1.779 1.266a6.462 6.462 0 11-5.517-5.514l-.412.413c-.17.17-.301.377-.381.605l-.093-.001a5.385 5.385 0 105.385 5.292c.227-.08.433-.21.603-.38l.414-.415zM6.46 3.77a3.77 3.77 0 103.77 3.77H9.152A2.693 2.693 0 116.46 4.846V3.77z" fill="#660091"/></svg>