<svg width="15" height="14" fill="none" xmlns="http://www.w3.org/2000/svg"><path d="M14.827 5.448a.517.517 0 00-.263-.346l-1.592-.863a6.048 6.048 0 00-.287-.488l.03-1.78a.515.515 0 00-.175-.395A7.484 7.484 0 009.788.026a.548.548 0 00-.44.05L7.789.99a6.311 6.311 0 00-.577 0L5.65.074a.544.544 0 00-.439-.05 7.485 7.485 0 00-2.75 1.553.524.524 0 00-.175.396l.03 1.778c-.103.158-.2.32-.288.487l-1.593.864a.532.532 0 00-.264.346 7.101 7.101 0 00.003 3.103.517.517 0 00.263.346l1.592.863c.088.167.184.33.287.488l-.03 1.78a.512.512 0 00.175.395 7.483 7.483 0 002.752 1.55.547.547 0 00.44-.05l1.56-.915c.192.01.385.01.577 0l1.562.916a.543.543 0 00.439.05 7.487 7.487 0 002.75-1.553.524.524 0 00.175-.396l-.03-1.778c.103-.158.2-.32.288-.487l1.593-.864a.53.53 0 00.264-.346 7.102 7.102 0 00-.003-3.103zM13.83 8.1l-1.52.825a.528.528 0 00-.223.23 4.95 4.95 0 01-.382.645.515.515 0 00-.093.304l.029 1.697a6.4 6.4 0 01-1.95 1.103l-1.492-.874a.545.545 0 00-.316-.074 5.217 5.217 0 01-.762 0 .548.548 0 00-.316.073l-1.491.873a6.402 6.402 0 01-1.953-1.098l.03-1.7a.515.515 0 00-.094-.302 4.953 4.953 0 01-.38-.646.529.529 0 00-.223-.23L1.173 8.1a6.071 6.071 0 01-.003-2.2l1.52-.825a.529.529 0 00.223-.23c.11-.224.238-.44.382-.644a.514.514 0 00.093-.304L3.36 2.199a6.4 6.4 0 011.95-1.103l1.492.875a.547.547 0 00.316.073 5.21 5.21 0 01.762 0 .546.546 0 00.316-.073l1.491-.873a6.4 6.4 0 011.953 1.099l-.03 1.698a.515.515 0 00.094.303c.143.206.27.422.38.646a.529.529 0 00.223.23l1.52.825c.135.728.136 1.473.002 2.201zM7.5 3.34a3.81 3.81 0 00-2.082.617A3.682 3.682 0 004.038 5.6a3.582 3.582 0 00-.214 2.115c.145.71.502 1.363 1.026 1.875s1.192.861 1.92 1.002a3.832 3.832 0 002.166-.208 3.731 3.731 0 001.682-1.349 3.6 3.6 0 00.632-2.034 3.623 3.623 0 00-1.1-2.588A3.799 3.799 0 007.5 3.34zm0 6.276a2.727 2.727 0 01-1.487-.44A2.63 2.63 0 015.026 8a2.559 2.559 0 01-.152-1.511c.103-.507.358-.973.732-1.34a2.698 2.698 0 011.372-.715c.519-.1 1.057-.05 1.547.149.489.198.907.533 1.201.963.295.43.452.936.452 1.453a2.59 2.59 0 01-.786 1.849 2.713 2.713 0 01-1.892.766z" fill="#660091"/></svg>