<svg width="18" height="18" fill="none" xmlns="http://www.w3.org/2000/svg"><path d="M16.56 0H1.538C.718 0 0 .59 0 1.402v15.055C0 17.273.717 18 1.538 18h15.018c.825 0 1.444-.732 1.444-1.543V1.402C18.005.59 17.381 0 16.56 0zM5.58 15.004H3V6.986h2.58v8.018zm-1.2-9.237h-.02C3.535 5.767 3 5.153 3 4.384 3.001 3.6 3.55 3 4.394 3c.843 0 1.36.595 1.378 1.383 0 .769-.535 1.383-1.393 1.383zm10.624 9.237h-2.579V10.62c0-1.05-.375-1.768-1.308-1.768-.713 0-1.135.482-1.322.952-.07.169-.09.399-.09.633v4.567H7.128V6.986h2.579v1.116c.375-.534.961-1.303 2.325-1.303 1.693 0 2.973 1.115 2.973 3.52v4.685z" fill="#4C4F57"/></svg>