<svg width="18" height="18" fill="none" xmlns="http://www.w3.org/2000/svg"><path d="M16.071 0H1.93A1.93 1.93 0 000 1.929V16.07A1.93 1.93 0 001.929 18H16.07A1.929 1.929 0 0018 16.071V1.93A1.929 1.929 0 0016.071 0zm-1.964 6.38c.008.113.008.23.008.342 0 3.483-2.652 7.497-7.498 7.497a7.462 7.462 0 01-4.046-1.181c.213.024.418.032.635.032a5.284 5.284 0 003.27-1.125 2.639 2.639 0 01-2.462-1.828c.406.06.771.06 1.19-.048a2.635 2.635 0 01-2.11-2.588V7.45c.35.197.76.318 1.189.334A2.63 2.63 0 013.11 5.589c0-.49.128-.94.357-1.33A7.482 7.482 0 008.9 7.015c-.374-1.788.964-3.238 2.571-3.238.76 0 1.442.317 1.925.831a5.164 5.164 0 001.671-.634 2.628 2.628 0 01-1.157 1.45 5.244 5.244 0 001.519-.41 5.547 5.547 0 01-1.322 1.366z" fill="#4C4F57"/></svg>